<?xml version="1.0" encoding="utf-8"?>
<!-- Generator: Adobe Illustrator 23.0.1, SVG Export Plug-In . SVG Version: 6.00 Build 0)  -->
<svg version="1.1" id="Layer_1" xmlns="http://www.w3.org/2000/svg" xmlns:xlink="http://www.w3.org/1999/xlink" x="0px" y="0px"
	 viewBox="0 0 65 170" style="enable-background:new 0 0 65 170;" xml:space="preserve">
<g>
	<path d="M39.3,119.08c3.07-0.36,5.73-0.46,8.3-1.02c5.79-1.25,8.42,1.08,6.99,6.83c-0.76,3.06-1.99,6.09-3.51,8.87
		c-5.91,10.84-13.91,19.91-24.26,26.69c-1.89,1.24-5.2,2.22-6.85,1.37c-1.56-0.81-2.36-4.15-2.46-6.43
		c-0.16-3.47,0.31-7.03,0.98-10.46c1.47-7.4-0.54-13.89-4.53-20c-0.35-0.53-0.86-1.08-0.93-1.66c-0.28-2.34-1.26-5.18-0.3-6.89
		c0.66-1.17,4.17-1.25,6.29-0.96c3.42,0.47,6.75,1.64,10.77,2.68c0-10.02,0.55-19.41-0.11-28.72c-1.44-20.21-5.59-39.85-15.05-58.02
		c-1.99-3.81-4.29-7.47-6.57-11.13c-1.78-2.87-3.56-5.9,0.06-8.37c3.72-2.54,5.74,0.42,7.6,3.19
		c12.64,18.86,19.41,39.88,21.83,62.23c1.34,12.36,1.22,24.88,1.75,37.32C39.35,115.84,39.3,117.08,39.3,119.08z"/>
</g>
</svg>
