<svg id="Calque_2" data-name="Calque 2" xmlns="http://www.w3.org/2000/svg" viewBox="0 0 384.68 78.48"><defs><style>.cls-1{fill:#223f99;}.cls-2{fill:#231f20;}</style></defs><title>logo clelie</title><path class="cls-1" d="M60.06,94.71a50.5,50.5,0,0,1-9.86,2.93,56.78,56.78,0,0,1-10.44,1q-16.83,0-25.92-9.81T4.75,60.11A48.78,48.78,0,0,1,7.37,43.68a37,37,0,0,1,7.35-12.62A32.4,32.4,0,0,1,26,23a36.11,36.11,0,0,1,14.5-2.85A60.11,60.11,0,0,1,50.87,21a40.43,40.43,0,0,1,9.19,2.73V36.31a37.25,37.25,0,0,0-9.37-3.77,41.29,41.29,0,0,0-9.87-1.18,21.11,21.11,0,0,0-8.94,1.94,22.1,22.1,0,0,0-7.4,5.59,27.06,27.06,0,0,0-5,8.9,35.88,35.88,0,0,0-1.84,11.86q0,13.84,6.26,20.73t17.37,6.88a38.23,38.23,0,0,0,18.81-4.87Z" transform="translate(-4.75 -20.11)"/><rect class="cls-1" x="73.95" y="1.51" width="11.62" height="54.17"/><rect class="cls-1" x="73.95" y="68.7" width="44.68" height="8.21"/><rect class="cls-1" x="136.21" y="1.55" width="10.53" height="75.26"/><rect class="cls-1" x="153.95" y="1.49" width="27.1" height="8.23"/><rect class="cls-1" x="154.02" y="34.55" width="24.7" height="8.17"/><rect class="cls-1" x="154.02" y="68.64" width="27" height="8.17"/><polygon class="cls-1" points="203.48 1.49 214.97 1.49 214.97 68.64 247.99 68.64 247.99 76.81 203.48 76.81 203.48 1.49"/><rect class="cls-1" x="264.76" y="1.49" width="45.7" height="8.28"/><rect class="cls-1" x="282.38" y="15.64" width="10.38" height="47.06"/><rect class="cls-1" x="264.63" y="68.66" width="45.83" height="8.15"/><path class="cls-2" d="M335.34,22.85" transform="translate(-4.75 -20.11)"/><rect class="cls-1" x="330.59" y="2.74" width="54.04" height="8.21"/><rect class="cls-1" x="330.59" y="35.68" width="51.7" height="8.26"/><rect class="cls-1" x="330.59" y="69.85" width="54.09" height="8.17"/></svg>