<svg id="Calque_2" data-name="Calque 2" xmlns="http://www.w3.org/2000/svg" viewBox="0 0 395.85 174.64"><defs><style>.cls-1{font-size:155.74px;font-family:Consolas;}.cls-1,.cls-2{fill:#223f99;}.cls-3{fill:#231f20;}</style></defs><title>logo clelie</title><text class="cls-1" transform="translate(0 127.57) scale(0.93 1)">c</text><rect class="cls-2" x="85.13" y="51.66" width="11.62" height="54.17"/><rect class="cls-2" x="85.13" y="118.85" width="44.68" height="8.21"/><rect class="cls-2" x="147.38" y="51.7" width="10.53" height="75.26"/><rect class="cls-2" x="165.13" y="51.64" width="27.1" height="8.23"/><rect class="cls-2" x="165.19" y="84.7" width="24.7" height="8.17"/><rect class="cls-2" x="165.19" y="118.79" width="27" height="8.17"/><polygon class="cls-2" points="214.66 51.64 226.15 51.64 226.15 118.79 259.17 118.79 259.17 126.96 214.66 126.96 214.66 51.64"/><rect class="cls-2" x="275.94" y="51.64" width="45.7" height="8.28"/><rect class="cls-2" x="293.55" y="65.79" width="10.38" height="47.06"/><rect class="cls-2" x="275.81" y="118.81" width="45.83" height="8.15"/><path class="cls-3" d="M341.77,22.85" transform="translate(0 30.04)"/><rect class="cls-2" x="341.77" y="52.89" width="54.04" height="8.21"/><rect class="cls-2" x="341.77" y="85.83" width="51.7" height="8.26"/><rect class="cls-2" x="341.77" y="120" width="54.09" height="8.17"/></svg>