<?xml version="1.0" encoding="utf-8"?>
<!-- Generator: Adobe Illustrator 23.0.1, SVG Export Plug-In . SVG Version: 6.00 Build 0)  -->
<svg version="1.1" id="Layer_1" xmlns="http://www.w3.org/2000/svg" xmlns:xlink="http://www.w3.org/1999/xlink" x="0px" y="0px"
	 viewBox="0 0 220.08 252" style="enable-background:new 0 0 220.08 252;" xml:space="preserve">
<style type="text/css">
	.st0{fill:#FFFFFF;}
</style>
<g>
	<g>
		<path d="M108.63,107.46c28-28.11,55.26-55.48,82.54-82.88c4.93,5.27,9.52,10.17,14.04,14.99c-31.75,31.59-64.07,63.77-96.14,95.68
			c-31.93-31.79-64.25-63.97-96.32-95.9c4.64-4.63,9.32-9.31,14.11-14.09C53.73,52.27,81.06,79.75,108.63,107.46z"/>
	</g>
</g>
<g>
	<g>
		<path d="M108.63,213.77c28-28.11,55.26-55.48,82.54-82.88c4.93,5.27,9.52,10.17,14.04,14.99c-31.75,31.59-64.07,63.77-96.14,95.68
			c-31.93-31.79-64.25-63.97-96.32-95.9c4.64-4.63,9.32-9.31,14.11-14.09C53.73,158.58,81.06,186.06,108.63,213.77z"/>
	</g>
</g>
</svg>
